<?xml version="1.0" encoding="UTF-8" standalone="no" ?>
<!DOCTYPE svg PUBLIC "-//W3C//DTD SVG 1.1//EN" "http://www.w3.org/Graphics/SVG/1.1/DTD/svg11.dtd">
<svg xmlns="http://www.w3.org/2000/svg" xmlns:xlink="http://www.w3.org/1999/xlink" version="1.1" width="1080" height="1080" viewBox="0 0 1080 1080" xml:space="preserve">
<desc>Created with Fabric.js 5.2.4</desc>
<defs>
</defs>
<rect x="0" y="0" width="100%" height="100%" fill="transparent"></rect>
<g transform="matrix(1 0 0 1 540 540)" id="132615f5-6952-436d-911c-ae3138d04a16"  >
<rect style="stroke: none; stroke-width: 1; stroke-dasharray: none; stroke-linecap: butt; stroke-dashoffset: 0; stroke-linejoin: miter; stroke-miterlimit: 4; fill: rgb(255,255,255); fill-rule: nonzero; opacity: 1; visibility: hidden;" vector-effect="non-scaling-stroke"  x="-540" y="-540" rx="0" ry="0" width="1080" height="1080" />
</g>
<g transform="matrix(1 0 0 1 540 540)" id="6b2f4c72-04f7-42f8-a29c-895b0f7aec72"  >
</g>
<g transform="matrix(15.3 0 0 15.3 540 540)" id="89594810-16c4-49b8-9462-32bf33b9f6a4"  >
<circle style="stroke: rgb(0,0,0); stroke-width: 0; stroke-dasharray: none; stroke-linecap: butt; stroke-dashoffset: 0; stroke-linejoin: miter; stroke-miterlimit: 4; fill: rgb(170,202,226); fill-rule: nonzero; opacity: 1;" vector-effect="non-scaling-stroke"  cx="0" cy="0" r="35" />
</g>
<g transform="matrix(3.85 0.99 -1.42 5.55 634.73 539.55)" id="1e85f9f3-7849-4f68-a10e-da58a455a5f8"  >
<rect style="stroke: rgb(0,0,0); stroke-width: 0; stroke-dasharray: none; stroke-linecap: butt; stroke-dashoffset: 0; stroke-linejoin: miter; stroke-miterlimit: 4; fill: rgb(206,223,236); fill-rule: nonzero; opacity: 1;" vector-effect="non-scaling-stroke"  x="-33.085" y="-33.085" rx="0" ry="0" width="66.17" height="66.17" />
</g>
<g transform="matrix(0.95 -0.31 1.57 4.76 369.15 540)" id="4f8f6d21-bd9c-477b-b949-2d720b64d9b9"  >
<rect style="stroke: rgb(0,0,0); stroke-width: 0; stroke-dasharray: none; stroke-linecap: butt; stroke-dashoffset: 0; stroke-linejoin: miter; stroke-miterlimit: 4; fill: rgb(119,136,149); fill-rule: nonzero; opacity: 1;" vector-effect="non-scaling-stroke"  x="-33.085" y="-33.085" rx="0" ry="0" width="66.17" height="66.17" />
</g>
<g transform="matrix(0.98 -0.18 0.94 5.26 409.66 529.51)" id="4f8f6d21-bd9c-477b-b949-2d720b64d9b9"  >
<rect style="stroke: rgb(0,0,0); stroke-width: 0; stroke-dasharray: none; stroke-linecap: butt; stroke-dashoffset: 0; stroke-linejoin: miter; stroke-miterlimit: 4; fill: rgb(119,136,149); fill-rule: nonzero; opacity: 1;" vector-effect="non-scaling-stroke"  x="-33.085" y="-33.085" rx="0" ry="0" width="66.17" height="66.17" />
</g>
<g transform="matrix(0 0 0 0 0 0)"  >
<g style=""   >
</g>
</g>
<g transform="matrix(0 0 0 0 0 0)"  >
<g style=""   >
</g>
</g>
<g transform="matrix(0 0 0 0 0 0)"  >
<g style=""   >
</g>
</g>
<g transform="matrix(0 0 0 0 0 0)"  >
<g style=""   >
</g>
</g>
<g transform="matrix(0.13 0 0 -0.13 540.52 113.56)"  >
<path style="stroke: none; stroke-width: 1; stroke-dasharray: none; stroke-linecap: butt; stroke-dashoffset: 0; stroke-linejoin: miter; stroke-miterlimit: 4; fill: rgb(0,0,0); fill-rule: nonzero; opacity: 1;" vector-effect="non-scaling-stroke"  transform=" translate(-3986.5, -7286.17)" d="M 3973 7690 C 3803 7654 3710 7510 3710 7284 C 3710 7070 3764 6957 3895 6899 C 3935 6881 3963 6876 4035 6876 C 4120 6876 4243 6901 4255 6921 C 4259 6927 4225 7035 4216 7047 C 4215 7048 4192 7043 4165 7035 C 4102 7016 4017 7016 3979 7036 C 3958 7046 3940 7070 3922 7108 C 3898 7160 3895 7177 3895 7285 C 3895 7477 3936 7550 4045 7550 C 4092 7550 4104 7546 4136 7518 C 4177 7482 4165 7476 4234 7564 L 4263 7601 L 4239 7627 C 4189 7681 4068 7710 3973 7690 z" stroke-linecap="round" />
</g>
<g transform="matrix(0.13 0 0 -0.13 244.73 226.98)"  >
<path style="stroke: none; stroke-width: 1; stroke-dasharray: none; stroke-linecap: butt; stroke-dashoffset: 0; stroke-linejoin: miter; stroke-miterlimit: 4; fill: rgb(0,0,0); fill-rule: nonzero; opacity: 1;" vector-effect="non-scaling-stroke"  transform=" translate(-1771.47, -6435.5)" d="M 1553 6651 C 1447 6541 1360 6448 1360 6443 C 1360 6438 1380 6414 1405 6390 L 1450 6346 L 1520 6415 L 1589 6484 L 1828 6252 L 2067 6021 L 2129 6084 C 2189 6144 2191 6148 2173 6161 C 2162 6169 2052 6273 1929 6393 L 1706 6610 L 1772 6678 L 1839 6745 L 1799 6798 C 1777 6826 1756 6850 1752 6850 C 1748 6849 1658 6760 1553 6651 z" stroke-linecap="round" />
</g>
<g transform="matrix(0.13 0 0 -0.13 828.65 246.73)"  >
<path style="stroke: none; stroke-width: 1; stroke-dasharray: none; stroke-linecap: butt; stroke-dashoffset: 0; stroke-linejoin: miter; stroke-miterlimit: 4; fill: rgb(0,0,0); fill-rule: nonzero; opacity: 1;" vector-effect="non-scaling-stroke"  transform=" translate(-6151, -6286.15)" d="M 6155 6741 C 5975 6693 5761 6454 5760 6301 C 5760 6223 5780 6180 5845 6113 C 5891 6067 5919 6048 5955 6038 L 6003 6023 L 5969 6003 C 5920 5973 5882 5968 5823 5983 C 5794 5991 5770 5997 5770 5996 C 5770 5995 5761 5965 5751 5928 L 5732 5861 L 5783 5843 C 5813 5833 5865 5825 5905 5825 C 6002 5825 6043 5850 6223 6023 L 6371 6165 L 6315 6228 L 6258 6290 L 6207 6244 C 6132 6176 6102 6160 6048 6160 C 5990 6160 5944 6195 5934 6245 C 5922 6311 5999 6430 6109 6514 C 6189 6576 6233 6593 6290 6587 C 6351 6580 6403 6523 6421 6443 L 6434 6388 L 6478 6394 C 6503 6397 6533 6400 6546 6400 C 6567 6400 6570 6405 6570 6438 C 6570 6537 6482 6663 6376 6715 C 6319 6743 6210 6756 6155 6741 z" stroke-linecap="round" />
</g>
<g transform="matrix(0.13 0 0 -0.13 945.74 693.94)"  >
<path style="stroke: none; stroke-width: 1; stroke-dasharray: none; stroke-linecap: butt; stroke-dashoffset: 0; stroke-linejoin: miter; stroke-miterlimit: 4; fill: rgb(0,0,0); fill-rule: nonzero; opacity: 1;" vector-effect="non-scaling-stroke"  transform=" translate(-7030, -2935)" d="M 6696 3023 C 6632 2882 6580 2762 6580 2756 C 6581 2746 6700 2685 6705 2692 C 6705 2694 6723 2733 6744 2780 C 6765 2827 6783 2866 6785 2868 C 6786 2870 6904 2818 7046 2754 C 7189 2690 7329 2627 7358 2614 L 7411 2590 L 7445 2666 C 7464 2708 7480 2745 7480 2749 C 7480 2752 7346 2815 7182 2888 C 7019 2961 6879 3024 6872 3029 C 6862 3035 6869 3057 6899 3123 L 6939 3210 L 6887 3245 C 6859 3264 6830 3280 6824 3280 C 6818 3280 6760 3165 6696 3023 z" stroke-linecap="round" />
</g>
<g transform="matrix(0.13 0 0 -0.13 130.92 697.05)"  >
<path style="stroke: none; stroke-width: 1; stroke-dasharray: none; stroke-linecap: butt; stroke-dashoffset: 0; stroke-linejoin: miter; stroke-miterlimit: 4; fill: rgb(0,0,0); fill-rule: nonzero; opacity: 1;" vector-effect="non-scaling-stroke"  transform=" translate(-918.75, -2912.52)" d="M 846 3060 C 643 2967 475 2888 472 2886 C 464 2877 533 2730 546 2730 C 552 2730 615 2757 685 2790 C 755 2823 814 2850 816 2850 C 818 2850 835 2820 854 2783 C 917 2658 997 2600 1105 2600 C 1201 2600 1302 2656 1339 2728 C 1386 2821 1375 2894 1282 3093 C 1249 3163 1221 3223 1218 3225 C 1216 3227 1049 3153 846 3060 z M 1190 2964 C 1216 2905 1215 2869 1189 2836 C 1161 2800 1119 2780 1071 2780 C 1037 2780 1026 2786 1004 2813 C 990 2832 971 2861 964 2879 L 951 2911 L 1053 2960 C 1109 2986 1159 3009 1163 3009 C 1167 3010 1180 2989 1190 2964 z" stroke-linecap="round" />
</g>
<g transform="matrix(0.13 0 0 -0.13 836.97 859.78)"  >
<path style="stroke: none; stroke-width: 1; stroke-dasharray: none; stroke-linecap: butt; stroke-dashoffset: 0; stroke-linejoin: miter; stroke-miterlimit: 4; fill: rgb(0,0,0); fill-rule: nonzero; opacity: 1;" vector-effect="non-scaling-stroke"  transform=" translate(-6214.5, -1688)" d="M 5938 2000 C 5834 1911 5750 1836 5750 1831 C 5750 1815 6270 1215 6283 1216 C 6291 1217 6383 1291 6488 1380 L 6679 1543 L 6651 1579 C 6586 1660 6600 1663 6454 1539 L 6325 1429 L 6272 1487 C 6175 1592 6177 1585 6245 1644 C 6278 1672 6320 1709 6339 1726 L 6373 1757 L 6339 1813 C 6321 1845 6302 1870 6297 1870 C 6292 1870 6244 1832 6189 1785 L 6090 1700 L 6053 1743 C 6033 1766 6005 1797 5992 1811 L 5968 1838 L 6094 1945 C 6233 2064 6228 2050 6163 2123 C 6145 2144 6129 2160 6128 2160 C 6126 2160 6041 2088 5938 2000 z" stroke-linecap="round" />
</g>
<g transform="matrix(0.13 0 0 -0.13 263.33 871.85)"  >
<path style="stroke: none; stroke-width: 1; stroke-dasharray: none; stroke-linecap: butt; stroke-dashoffset: 0; stroke-linejoin: miter; stroke-miterlimit: 4; fill: rgb(0,0,0); fill-rule: nonzero; opacity: 1;" vector-effect="non-scaling-stroke"  transform=" translate(-1910.85, -1599.08)" d="M 1886 1999 C 1745 1964 1569 1781 1518 1617 C 1482 1497 1509 1399 1606 1304 C 1679 1232 1756 1196 1847 1192 C 1977 1185 2084 1243 2193 1380 C 2342 1567 2359 1731 2243 1860 C 2140 1974 2002 2028 1886 1999 z M 2085 1810 C 2127 1769 2144 1721 2135 1672 C 2123 1607 2067 1517 1990 1439 C 1930 1379 1905 1361 1868 1351 C 1825 1339 1817 1340 1775 1360 C 1701 1396 1666 1472 1690 1547 C 1719 1633 1826 1768 1910 1822 C 1972 1862 2036 1858 2085 1810 z" stroke-linecap="round" />
</g>
<g transform="matrix(0.13 0 0 -0.13 662.05 954.79)"  >
<path style="stroke: none; stroke-width: 1; stroke-dasharray: none; stroke-linecap: butt; stroke-dashoffset: 0; stroke-linejoin: miter; stroke-miterlimit: 4; fill: rgb(0,0,0); fill-rule: nonzero; opacity: 1;" vector-effect="non-scaling-stroke"  transform=" translate(-4901.61, -975.36)" d="M 4953 1427 L 4870 1406 L 4870 1346 C 4870 1255 4845 1154 4808 1093 C 4780 1047 4734 1001 4726 1012 C 4724 1014 4706 1084 4684 1168 C 4663 1252 4642 1326 4639 1332 C 4632 1343 4510 1319 4482 1301 C 4471 1295 4491 1207 4570 899 C 4626 682 4673 504 4675 502 C 4679 498 4830 537 4837 544 C 4840 547 4822 633 4796 736 C 4770 838 4750 923 4752 925 C 4754 927 4838 859 4939 773 L 5123 617 L 5179 628 C 5210 635 5255 646 5280 653 L 5324 666 L 5135 829 C 5030 919 4944 997 4942 1001 C 4940 1005 4951 1026 4965 1048 C 5016 1126 5032 1186 5038 1323 C 5040 1393 5041 1450 5039 1449 C 5037 1448 4998 1438 4953 1427 z" stroke-linecap="round" />
</g>
<g transform="matrix(0.13 0 0 -0.13 456.88 962.43)"  >
<path style="stroke: none; stroke-width: 1; stroke-dasharray: none; stroke-linecap: butt; stroke-dashoffset: 0; stroke-linejoin: miter; stroke-miterlimit: 4; fill: rgb(0,0,0); fill-rule: nonzero; opacity: 1;" vector-effect="non-scaling-stroke"  transform=" translate(-3360.28, -919.45)" d="M 3309 1326 C 3215 1293 3155 1234 3104 1126 C 3036 983 3020 780 3069 679 C 3126 559 3245 500 3428 500 C 3470 500 3511 504 3518 509 C 3529 515 3530 533 3525 583 L 3518 648 L 3460 643 C 3338 632 3250 680 3234 766 C 3224 822 3236 948 3259 1022 C 3300 1150 3375 1213 3459 1190 C 3495 1180 3540 1145 3558 1113 C 3567 1098 3574 1101 3624 1139 C 3655 1163 3680 1189 3680 1198 C 3680 1228 3585 1308 3529 1324 C 3466 1343 3359 1344 3309 1326 z" stroke-linecap="round" />
</g>
<g transform="matrix(0 0 0 0 0 0)"  >
<g style=""   >
</g>
</g>
<g transform="matrix(1 0.06 -0.34 5.32 442.19 510.73)" id="4f8f6d21-bd9c-477b-b949-2d720b64d9b9"  >
<rect style="stroke: rgb(0,0,0); stroke-width: 0; stroke-dasharray: none; stroke-linecap: butt; stroke-dashoffset: 0; stroke-linejoin: miter; stroke-miterlimit: 4; fill: rgb(119,136,149); fill-rule: nonzero; opacity: 1;" vector-effect="non-scaling-stroke"  x="-33.085" y="-33.085" rx="0" ry="0" width="66.17" height="66.17" />
</g>
<g transform="matrix(0.98 0.22 -1.16 5.2 475.88 497.06)" id="4f8f6d21-bd9c-477b-b949-2d720b64d9b9"  >
<rect style="stroke: rgb(0,0,0); stroke-width: 0; stroke-dasharray: none; stroke-linecap: butt; stroke-dashoffset: 0; stroke-linejoin: miter; stroke-miterlimit: 4; fill: rgb(119,136,149); fill-rule: nonzero; opacity: 1;" vector-effect="non-scaling-stroke"  x="-33.085" y="-33.085" rx="0" ry="0" width="66.17" height="66.17" />
</g>
<g transform="matrix(0 0 0 0 0 0)"  >
<g style=""   >
</g>
</g>
<g transform="matrix(0.13 0 0 -0.13 547.34 543.49)"  >
<path style="stroke: none; stroke-width: 1; stroke-dasharray: none; stroke-linecap: butt; stroke-dashoffset: 0; stroke-linejoin: miter; stroke-miterlimit: 4; fill: rgb(19,38,53); fill-rule: nonzero; opacity: 1;" vector-effect="non-scaling-stroke"  transform=" translate(-4084.13, -4027.01)" d="M 4340 5818 C 4321 5813 4161 5807 3985 5805 C 3520 5798 3348 5786 3268 5756 C 3232 5742 3163 5722 3114 5710 C 3065 5699 3003 5683 2975 5676 C 2948 5668 2907 5659 2885 5655 C 2815 5643 2688 5598 2629 5564 C 2598 5545 2569 5530 2565 5530 C 2561 5530 2544 5524 2527 5516 C 2509 5508 2430 5476 2350 5444 C 2202 5386 2151 5355 2072 5272 C 1976 5172 1927 5001 1956 4863 C 1970 4793 2027 4613 2040 4595 C 2044 4590 2050 4576 2053 4565 C 2059 4542 2193 4155 2235 4040 C 2249 3999 2304 3839 2357 3685 C 2409 3531 2458 3392 2466 3375 C 2473 3359 2495 3296 2515 3235 C 2535 3175 2555 3116 2560 3105 C 2564 3094 2582 3040 2600 2985 C 2617 2930 2635 2877 2641 2868 C 2646 2858 2650 2845 2650 2838 C 2650 2831 2675 2761 2705 2683 C 2787 2468 2840 2402 2995 2329 C 3053 2302 3079 2295 3150 2292 C 3263 2287 3328 2303 3535 2385 C 3813 2495 3796 2490 3869 2484 C 3905 2481 4023 2472 4130 2464 C 4395 2445 4401 2444 4409 2434 C 4417 2422 4521 2390 4675 2350 C 4741 2333 4812 2313 4833 2304 C 4903 2277 5089 2230 5133 2229 C 5279 2223 5495 2341 5564 2465 C 5573 2482 5591 2513 5605 2535 C 5618 2557 5634 2598 5640 2625 C 5646 2653 5660 2707 5671 2745 C 5735 2980 5770 3122 5775 3165 C 5779 3192 5793 3252 5806 3299 C 5855 3465 5932 3772 5949 3865 C 5955 3898 5980 3997 6005 4085 C 6029 4173 6066 4308 6085 4385 C 6105 4462 6143 4611 6170 4715 C 6225 4923 6232 5003 6206 5112 C 6180 5221 6080 5371 6006 5412 C 5918 5461 5868 5481 5783 5500 C 5729 5512 5622 5540 5545 5561 C 5320 5622 5019 5698 4970 5705 C 4925 5712 4858 5729 4640 5790 C 4519 5823 4403 5834 4340 5818 z M 4550 5599 C 4602 5587 4690 5566 4745 5552 C 4838 5529 4892 5515 5155 5445 C 5263 5416 5369 5392 5412 5385 C 5426 5383 5489 5367 5552 5350 C 5879 5261 5905 5249 5958 5171 C 6002 5107 6023 5040 6017 4982 C 6013 4936 5938 4637 5847 4300 C 5805 4143 5797 4111 5784 4047 C 5779 4020 5758 3940 5685 3665 C 5665 3588 5646 3505 5644 3480 C 5641 3455 5632 3415 5625 3390 C 5610 3341 5556 3143 5515 2985 C 5500 2930 5485 2861 5480 2831 C 5475 2802 5461 2746 5448 2707 C 5420 2616 5343 2532 5263 2506 C 5171 2476 5117 2482 4840 2555 C 4700 2592 4554 2630 4515 2640 C 4477 2650 4400 2670 4345 2685 C 4290 2700 4187 2727 4115 2745 C 3708 2850 3723 2844 3664 2905 C 3612 2960 3580 3031 3580 3094 C 3580 3111 3593 3181 3609 3250 C 3688 3584 3702 3641 3725 3725 C 3786 3943 3803 4008 3810 4060 C 3815 4090 3844 4210 3875 4325 C 3906 4441 3939 4560 3947 4590 C 3970 4676 4074 5080 4115 5245 C 4169 5462 4191 5509 4265 5566 C 4341 5624 4406 5631 4550 5599 z M 3459 5513 C 3424 5448 3404 5372 3401 5291 C 3400 5261 3397 5233 3395 5230 C 3391 5223 3385 5152 3375 5005 C 3372 4956 3367 4893 3364 4865 C 3356 4793 3337 4571 3326 4430 C 3324 4405 3317 4336 3311 4275 C 3296 4140 3293 4107 3285 4000 C 3281 3953 3276 3902 3274 3885 C 3267 3842 3251 3667 3245 3580 C 3242 3539 3236 3469 3231 3425 C 3223 3347 3223 3346 3220 3400 C 3216 3498 3213 3562 3206 3740 C 3202 3836 3197 3960 3195 4015 C 3192 4070 3188 4203 3185 4310 C 3172 4726 3167 4887 3154 5186 C 3148 5333 3161 5398 3208 5455 C 3241 5495 3291 5530 3321 5534 C 3334 5535 3352 5539 3360 5543 C 3376 5549 3456 5567 3478 5569 C 3486 5570 3479 5549 3459 5513 z M 3966 5547 C 3969 5545 3957 5494 3940 5434 C 3894 5268 3820 4985 3799 4895 C 3790 4851 3770 4777 3756 4730 C 3727 4633 3679 4447 3625 4220 C 3587 4059 3562 3965 3527 3845 C 3516 3807 3503 3750 3499 3720 C 3492 3670 3492 3671 3496 3735 C 3502 3820 3505 3858 3519 4025 C 3535 4210 3539 4250 3546 4294 C 3550 4316 3554 4357 3555 4384 C 3557 4412 3560 4460 3563 4490 C 3566 4520 3572 4581 3576 4625 C 3579 4669 3584 4721 3586 4740 C 3601 4890 3613 5023 3615 5065 C 3624 5203 3640 5330 3654 5376 C 3679 5457 3759 5526 3855 5551 C 3884 5559 3957 5556 3966 5547 z M 2944 5442 C 2917 5425 2912 5317 2925 5021 C 2929 4953 2933 4847 2935 4786 C 2937 4725 2941 4614 2944 4540 C 2947 4466 2952 4315 2955 4205 C 2962 3925 2979 3469 2985 3383 C 2988 3343 2987 3310 2982 3310 C 2978 3310 2964 3361 2952 3423 C 2939 3484 2923 3567 2915 3605 C 2907 3644 2898 3689 2896 3705 C 2893 3722 2882 3780 2870 3835 C 2859 3890 2845 3960 2841 3990 C 2832 4046 2780 4318 2755 4445 C 2747 4484 2736 4542 2729 4575 C 2723 4608 2712 4667 2704 4705 C 2696 4744 2681 4820 2670 4875 C 2660 4930 2645 5008 2637 5049 C 2628 5090 2624 5146 2626 5174 C 2631 5228 2665 5309 2687 5317 C 2694 5320 2700 5328 2700 5336 C 2700 5344 2704 5350 2710 5350 C 2715 5350 2727 5358 2737 5368 C 2747 5378 2771 5392 2790 5399 C 2809 5407 2839 5418 2855 5425 C 2903 5445 2914 5448 2935 5449 C 2947 5449 2950 5447 2944 5442 z M 2391 5148 C 2391 5080 2399 5019 2415 4960 C 2419 4946 2428 4895 2436 4845 C 2444 4796 2453 4748 2456 4740 C 2462 4724 2499 4550 2505 4510 C 2510 4472 2536 4335 2595 4035 C 2608 3969 2623 3888 2629 3855 C 2638 3802 2665 3663 2716 3415 C 2747 3262 2745 3225 2711 3333 C 2701 3367 2678 3433 2660 3480 C 2643 3527 2625 3581 2619 3600 C 2610 3634 2574 3739 2450 4090 C 2416 4186 2382 4285 2375 4310 C 2368 4335 2346 4396 2327 4445 C 2308 4495 2264 4617 2230 4718 C 2174 4882 2168 4907 2173 4959 C 2183 5073 2240 5159 2333 5200 C 2356 5210 2378 5219 2383 5219 C 2387 5220 2390 5187 2391 5148 z M 2990 3280 C 2990 3275 2988 3270 2986 3270 C 2983 3270 2978 3275 2975 3280 C 2972 3286 2974 3290 2979 3290 C 2985 3290 2990 3286 2990 3280 z" stroke-linecap="round" />
</g>
<g transform="matrix(NaN NaN NaN NaN 0 0)"  >
<g style=""   >
</g>
</g>
</svg>